# xmcd
#
# Track frame offsets:
#	150
#	36045
#	53003
#	58574
#	82305
#	96059
#	125473
#	149267
#	157921
#
# Disc length: 2245 seconds
#
# Revision: 1
# Processed by: cddbd v1.5.2PL0 Copyright (c) Steve Scherf et al.
# Submitted via: EasyCDDAExtractor 15.2.5.1
#
DISCID=7108c309
DTITLE=Tony Jeary - Communication Mastery 5 of 8
DYEAR=2005
DGENRE=Communication
TTITLE0=Defining Your Presentation Universe
TTITLE1=Steps To Make This Part Of Your Arsenal
TTITLE2=Looking At The What Ifs
TTITLE3=The 3-D Outline
TTITLE4=Planning Your Opening
TTITLE5=Making Sure You Know The Why
TTITLE6=HUHY Cards
TTITLE7=Reviewing This Session
TTITLE8=Vips For Session 5
EXTD=
EXTT0=
EXTT1=
EXTT2=
EXTT3=
EXTT4=
EXTT5=
EXTT6=
EXTT7=
EXTT8=
PLAYORDER=
